HIERARCHY
ROOT Hips
{
 OFFSET 0.000000 0.000000 0.000000
 CHANNELS 6 Xposition Yposition Zposition Yrotation Xrotation Zrotation
 JOINT Chest
 {
  OFFSET 0.000000 9.585900 0.002600
  CHANNELS 3 Yrotation Xrotation Zrotation
  JOINT Chest2
  {
   OFFSET 0.000000 9.601200 -0.005300
   CHANNELS 3 Yrotation Xrotation Zrotation
   JOINT Chest3
   {
    OFFSET 0.000000 9.561800 0.000000
    CHANNELS 3 Yrotation Xrotation Zrotation
    JOINT Chest4
    {
     OFFSET 0.000000 9.552100 0.000000
     CHANNELS 3 Yrotation Xrotation Zrotation
     JOINT Neck
     {
      OFFSET 0.000000 14.453000 0.000000
      CHANNELS 3 Yrotation Xrotation Zrotation
      JOINT Head
      {
       OFFSET 0.000000 8.936500 -0.011300
       CHANNELS 3 Yrotation Xrotation Zrotation
       End Site
       {
        OFFSET 0.000000 17.073600 -0.006000
       }
      }
     }
     JOINT RightCollar
     {
      OFFSET -2.921100 9.558500 0.000000
      CHANNELS 3 Yrotation Xrotation Zrotation
      JOINT RightShoulder
      {
       OFFSET -13.519700 0.000000 0.000000
       CHANNELS 3 Yrotation Xrotation Zrotation
       JOINT RightElbow
       {
        OFFSET 0.000000 -29.696600 0.000000
        CHANNELS 3 Yrotation Xrotation Zrotation
        JOINT RightWrist
        {
         OFFSET 0.000000 -24.004700 0.000000
         CHANNELS 3 Yrotation Xrotation Zrotation
         End Site
         {
          OFFSET 0.000000 -17.728500 0.000000
         }
        }
       }
      }
     }
     JOINT LeftCollar
     {
      OFFSET 2.921100 9.558500 0.000000
      CHANNELS 3 Yrotation Xrotation Zrotation
      JOINT LeftShoulder
      {
       OFFSET 13.519700 0.000000 0.000000
       CHANNELS 3 Yrotation Xrotation Zrotation
       JOINT LeftElbow
       {
        OFFSET 0.000000 -29.696600 0.000000
        CHANNELS 3 Yrotation Xrotation Zrotation
        JOINT LeftWrist
        {
         OFFSET 0.000000 -24.004700 0.000000
         CHANNELS 3 Yrotation Xrotation Zrotation
         End Site
         {
          OFFSET 0.000000 -17.728500 0.000000
         }
        }
       }
      }
     }
    }
   }
  }
 }
 JOINT RightHip
 {
  OFFSET -7.771700 -0.012900 -0.001300
  CHANNELS 3 Yrotation Xrotation Zrotation
  JOINT RightKnee
  {
   OFFSET 0.000000 -40.869800 0.001200
   CHANNELS 3 Yrotation Xrotation Zrotation
   JOINT RightAnkle
   {
    OFFSET 0.000000 -39.717900 0.002100
    CHANNELS 3 Yrotation Xrotation Zrotation
    JOINT RightToe
    {
     OFFSET 0.000000 -4.965400 11.033500
     CHANNELS 3 Yrotation Xrotation Zrotation
     End Site
     {
      OFFSET 0.000000 -1.423100 5.872300
     }
    }
   }
  }
 }
 JOINT LeftHip
 {
  OFFSET 7.771700 -0.012900 -0.001300
  CHANNELS 3 Yrotation Xrotation Zrotation
  JOINT LeftKnee
  {
   OFFSET 0.000000 -40.869800 0.001200
   CHANNELS 3 Yrotation Xrotation Zrotation
   JOINT LeftAnkle
   {
    OFFSET 0.000000 -39.717900 0.002100
    CHANNELS 3 Yrotation Xrotation Zrotation
    JOINT LeftToe
    {
     OFFSET 0.000000 -4.965400 11.033500
     CHANNELS 3 Yrotation Xrotation Zrotation
     End Site
     {
      OFFSET 0.000000 -1.423100 5.872300
     }
    }
   }
  }
 }
}
MOTION
Frames: 16
Frame Time: 0.008333
0.000000 85.388000 0.000000 0.000000 -5.767877 0.000000 0.000000 11.653817 0.000000 0.000000 -5.885947 0.000000 0.000000 -0.000000 0.000000 0.000000 -0.000000 0.000000 0.000000 12.528835 0.000000 0.000000 0.711642 0.000000 0.000000 -0.000000 0.000000 0.000000 0.000000 -90.000000 0.000000 -2.309062 0.000000 0.000000 2.309062 0.000000 0.000000 -0.000000 0.000000 0.000000 -0.000000 90.000000 0.000000 -2.309062 0.000000 0.000000 2.309062 0.000000 0.000000 8.520406 0.000000 0.000000 1.905762 0.000000 -0.000000 -4.658285 0.000000 0.000000 -0.000000 0.000000 0.000000 8.520406 0.000000 0.000000 1.905762 0.000000 -0.000000 -4.658285 0.000000 0.000000 -0.000000 0.000000
-25.832006 46.787387 26.794931 179.503091 -28.154855 -3.107163 0.741949 18.568264 1.678364 0.070625 2.121713 0.214882 0.146745 3.500619 0.360031 0.532646 16.117880 1.681406 1.049978 18.341189 -0.048294 1.943983 -1.727070 -0.428247 -1.430239 1.335733 -2.787152 2.872480 -4.826731 -13.929144 -60.671929 -72.376327 105.212326 1.706200 6.604973 -22.544374 -1.289795 -0.655946 2.372830 -2.631458 -1.622128 13.825899 88.494237 -77.564585 -127.032261 -3.216257 11.243328 7.776621 0.249579 -58.543356 -11.643243 -171.317572 80.763871 -163.346789 -5.559467 -12.199925 -4.934212 0.143349 -0.192103 -0.143347 0.585285 -60.314529 8.169319 -105.430209 80.187752 -110.135720 5.118977 -6.391763 6.174168 -0.098049 0.289444 -0.054567
-25.818881 46.788278 26.804265 179.429502 -28.165765 -3.108943 0.741347 18.582691 1.677496 0.127154 2.118714 0.225870 0.090757 3.511578 0.350316 0.531022 16.121492 1.672263 0.982342 18.344146 -0.039860 1.817071 -1.722542 -0.390770 -1.391256 1.326817 -2.792143 2.929025 -4.827439 -13.946141 -60.732018 -72.401027 105.386288 1.757980 6.572060 -22.478084 -1.289014 -0.632137 2.368593 -2.756088 -1.503520 13.730703 88.400385 -77.566859 -127.096375 -3.216553 11.215584 7.805288 0.084171 -58.543822 -11.528671 -171.653433 80.805895 -163.658660 -5.519647 -12.168396 -4.978331 0.149635 -0.200165 -0.166470 0.549140 -60.301707 8.251973 -105.463516 80.185965 -110.148803 5.139837 -6.418336 6.145741 -0.091006 0.305929 -0.064029
-25.809494 46.788346 26.815528 179.333355 -28.171167 -3.070363 0.746290 18.590599 1.643261 0.072387 2.125243 0.213217 0.091206 3.516294 0.347465 0.588260 16.120000 1.672401 0.923117 18.348421 -0.033386 1.706131 -1.715387 -0.359614 -1.349667 1.320231 -2.798742 2.999761 -4.805949 -13.973313 -60.878518 -72.409110 105.628874 1.797538 6.547913 -22.443197 -1.271475 -0.615994 2.370715 -2.882840 -1.378493 13.627897 88.300706 -77.556877 -127.140152 -3.207146 11.193207 7.856217 -0.007461 -58.553269 -11.471667 -171.988971 80.847479 -163.969264 -5.484703 -12.145109 -5.044863 0.157814 -0.197700 -0.164759 0.513686 -60.289063 8.304353 -105.505780 80.220552 -110.210416 5.207723 -6.435221 6.142366 -0.128048 0.309278 -0.100152
-25.796119 46.787420 26.829374 179.192571 -28.164793 -3.029087 0.794007 18.584279 1.627529 0.052658 2.128355 0.208287 0.091416 3.519175 0.345546 0.608726 16.123149 1.667145 0.871484 18.351991 -0.027573 1.609290 -1.709429 -0.332295 -1.337998 1.314471 -2.807882 3.078315 -4.806946 -13.977363 -60.914405 -72.410656 105.780838 1.825431 6.530431 -22.422446 -1.252701 -0.602370 2.377501 -2.998332 -1.254533 13.520459 88.209833 -77.541334 -127.174731 -3.196848 11.181278 7.915335 -0.086104 -58.577149 -11.375157 -172.278416 80.894097 -164.228273 -5.443602 -12.122011 -5.145866 0.156041 -0.187573 -0.134397 0.533672 -60.297540 8.375549 -105.545649 80.242907 -110.263065 5.261232 -6.434289 6.160954 -0.174481 0.300358 -0.128355
-25.782528 46.788432 26.839289 179.110109 -28.180515 -3.012524 0.792349 18.602622 1.611037 0.052759 2.130192 0.207371 0.091550 3.522019 0.344027 0.608370 16.129375 1.659251 0.825705 18.354059 -0.021701 1.523253 -1.706198 -0.306783 -1.391439 1.312193 -2.816882 3.222102 -4.808599 -13.978716 -60.955385 -72.406480 105.930198 1.845003 6.519389 -22.407216 -1.236939 -0.592162 2.387070 -3.102544 -1.132203 13.412688 88.154035 -77.529226 -127.226279 -3.188031 11.178082 7.979443 -0.204306 -58.572799 -11.275730 -172.541719 80.931177 -164.479380 -5.402483 -12.100872 -5.219302 0.142631 -0.184151 -0.110208 0.507368 -60.282498 8.429513 -105.635049 80.258693 -110.333664 5.295755 -6.449470 6.136707 -0.183700 0.303658 -0.150379
-25.759457 46.792360 26.844279 179.008025 -28.227681 -3.040946 0.826317 18.650823 1.653087 0.052873 2.132229 0.206310 0.091769 3.525209 0.342290 0.608155 16.136246 1.650465 0.786458 18.354981 -0.015000 1.449069 -1.704979 -0.281780 -1.410576 1.301537 -2.823206 3.323916 -4.806309 -13.972663 -60.965614 -72.398463 106.049737 1.861575 6.515104 -22.386485 -1.222080 -0.583711 2.397383 -3.192588 -1.014412 13.309566 88.162626 -77.529699 -127.325496 -3.179712 11.182558 8.045764 -0.389781 -58.531798 -11.080321 -172.820151 80.973458 -164.725239 -5.366248 -12.066297 -5.289971 0.141815 -0.196516 -0.107766 0.401969 -60.238549 8.579895 -105.889212 80.249075 -110.510773 5.304381 -6.509386 6.036460 -0.123729 0.330692 -0.128817
-25.741457 46.793480 26.852971 178.901040 -28.240492 -3.036622 0.847624 18.664519 1.660584 0.053163 2.134070 0.205153 0.092191 3.528148 0.340324 0.608989 16.142651 1.640987 0.753892 18.355661 -0.006420 1.386567 -1.704076 -0.255560 -1.410822 1.290937 -2.822624 3.401960 -4.786779 -13.955342 -60.989629 -72.407867 106.177885 1.880568 6.515975 -22.349203 -1.204510 -0.573544 2.410832 -3.269129 -0.908367 13.213474 88.235029 -77.545984 -127.471271 -3.177050 11.197403 8.107167 -0.522729 -58.530078 -10.957573 -173.165659 81.015984 -165.026195 -5.339030 -12.028784 -5.346456 0.157241 -0.209875 -0.134001 0.348413 -60.229083 8.677001 -106.061957 80.268557 -110.651235 5.336928 -6.535137 6.002617 -0.128449 0.336671 -0.139062
-25.720462 46.794956 26.860431 178.781790 -28.253600 -3.045088 0.886441 18.677387 1.688137 0.094659 2.132875 0.210449 0.050719 3.533820 0.333786 0.652135 16.141550 1.639329 0.685909 18.361623 0.008341 1.332585 -1.704541 -0.229609 -1.453058 1.289097 -2.815144 3.477647 -4.779099 -13.948553 -60.998430 -72.407919 106.290710 1.902371 6.523702 -22.300180 -1.227119 -0.556120 2.436315 -3.331955 -0.817621 13.120568 88.367639 -77.579755 -127.660655 -3.184731 11.218100 8.158022 -0.600861 -58.522365 -10.821463 -173.322943 81.051662 -165.129707 -5.315315 -11.998479 -5.416730 0.169350 -0.213729 -0.116760 0.305492 -60.221170 8.805247 -106.204039 80.262800 -110.746884 5.348520 -6.561540 5.955321 -0.105863 0.344140 -0.144165
-25.698158 46.796539 26.866810 178.628631 -28.265804 -3.046848 0.961637 18.687748 1.728286 0.133972 2.131317 0.214326 0.010592 3.539803 0.329149 0.691796 16.140281 1.635937 0.623397 18.366542 0.025561 1.285437 -1.707029 -0.205412 -1.494362 1.288645 -2.805967 3.546955 -4.770637 -13.939024 -61.010170 -72.412274 106.405592 1.919848 6.533909 -22.245685 -1.247968 -0.537295 2.471041 -3.382109 -0.741865 13.028177 88.548111 -77.628089 -127.882956 -3.196337 11.239786 8.211300 -0.664143 -58.517101 -10.663968 -173.442168 81.088488 -165.196701 -5.283022 -11.971010 -5.494682 0.176498 -0.212304 -0.094454 0.274767 -60.216288 8.952150 -106.361601 80.250149 -110.854287 5.371880 -6.586245 5.886947 -0.087100 0.345382 -0.132607
-25.684199 46.798430 26.870329 178.519343 -28.281965 -3.021167 1.004689 18.703126 1.728204 0.112666 2.135094 0.210899 0.009759 3.539661 0.328299 0.625618 16.156936 1.622153 0.709007 18.353093 0.011346 1.199258 -1.707376 -0.155048 -1.436110 1.275725 -2.813308 3.606644 -4.761284 -13.927908 -60.999829 -72.407194 106.497180 1.925445 6.535417 -22.187836 -1.165110 -0.531727 2.493580 -3.424042 -0.679453 12.936429 88.727097 -77.678266 -128.089827 -3.203152 11.267803 8.294011 -0.867586 -58.514718 -10.498069 -173.818918 81.128406 -165.594783 -5.208647 -11.963312 -5.605261 0.144154 -0.201839 -0.074139 0.244720 -60.201670 9.008250 -106.555284 80.268816 -111.013184 5.412384 -6.607946 5.845415 -0.087615 0.342165 -0.143763
-25.673359 46.799563 26.873535 178.427454 -28.287532 -2.987356 1.068297 18.705760 1.729283 0.052635 2.139095 0.202376 0.006290 3.538367 0.328319 0.645958 16.160864 1.617847 0.716920 18.351971 0.011476 1.126142 -1.711270 -0.106138 -1.460254 1.276756 -2.802347 3.677054 -4.760838 -13.935765 -60.954681 -72.358486 106.532366 1.919798 6.528589 -22.132486 -1.163340 -0.516107 2.535371 -3.458975 -0.626847 12.847135 88.884154 -77.723580 -128.260571 -3.209159 11.301863 8.406294 -0.971235 -58.518394 -10.419270 -174.136340 81.159185 -165.903150 -5.161359 -11.955218 -5.680571 0.129497 -0.195037 -0.069425 0.154693 -60.196520 9.044732 -106.844010 80.334709 -111.292680 5.511844 -6.627321 5.849789 -0.140380 0.329504 -0.216616
-25.661173 46.801787 26.873402 178.338087 -28.305361 -2.964559 0.996992 18.722143 1.682059 0.116321 2.141373 0.209702 0.009057 3.538902 0.328517 0.689153 16.162672 1.617230 0.602891 18.351132 0.051221 1.164524 -1.717370 -0.130870 -1.506819 1.279356 -2.784487 3.704900 -4.743254 -13.916786 -60.910355 -72.373125 106.571546 1.853368 6.510091 -22.063544 -1.184076 -0.502249 2.582930 -3.465245 -0.593643 12.767578 89.001306 -77.762635 -128.395866 -3.217143 11.330712 8.528782 -1.054502 -58.507708 -10.319564 -174.316078 81.181425 -166.087854 -5.128543 -11.950148 -5.717111 0.114983 -0.187302 -0.068535 0.075851 -60.176614 9.100962 -107.085122 80.372593 -111.508910 5.574951 -6.652583 5.805679 -0.142443 0.324340 -0.234132
-25.647074 46.804391 26.871137 178.245146 -28.327967 -2.953247 0.978788 18.738307 1.669296 0.139852 2.147364 0.210678 0.007438 3.535685 0.330740 0.632010 16.169416 1.616664 0.626461 18.345285 0.046767 1.211788 -1.715678 -0.164436 -1.460190 1.279505 -2.792872 3.725350 -4.722953 -13.895799 -60.797927 -72.288073 106.564481 1.861065 6.497450 -22.029533 -1.107610 -0.493114 2.605075 -3.425475 -0.589147 12.700240 89.042002 -77.779974 -128.451672 -3.240025 11.357234 8.627619 -1.156415 -58.492376 -10.194316 -174.488883 81.201900 -166.269074 -5.087179 -11.938494 -5.728686 0.096947 -0.187062 -0.093197 -0.011958 -60.151390 9.187433 -107.311763 80.391670 -111.705123 5.622292 -6.683724 5.756914 -0.141413 0.323191 -0.243132
-25.632016 46.806459 26.868146 178.140860 -28.346136 -2.943918 0.990599 18.745966 1.674667 0.076616 2.144882 0.204322 0.117080 3.544133 0.336071 0.567434 16.168395 1.620188 0.642481 18.341507 0.040945 1.241295 -1.711732 -0.186635 -1.448563 1.285798 -2.795724 3.755566 -4.708078 -13.883636 -60.680239 -72.175287 106.526538 1.865120 6.486036 -22.010662 -1.065335 -0.481182 2.638886 -3.448717 -0.545193 12.612772 89.315507 -77.839284 -128.698188 -3.232452 11.371575 8.782145 -1.258521 -58.477980 -10.074191 -174.860770 81.231389 -166.619639 -5.064840 -11.930959 -5.795200 0.090772 -0.188445 -0.107083 -0.111105 -60.128865 9.296911 -107.536428 80.404823 -111.902428 5.668277 -6.721539 5.707399 -0.138802 0.325465 -0.212199
-25.624796 46.807551 26.863932 178.105434 -28.356687 -2.921418 0.923982 18.748498 1.633698 0.054067 2.143554 0.202902 0.117036 3.545129 0.336634 0.589613 16.171675 1.622649 0.645934 18.338592 0.038240 1.231035 -1.717003 -0.185514 -1.454961 1.295349 -2.799032 3.782335 -4.694274 -13.870891 -60.570387 -72.085358 106.478017 1.832213 6.471840 -22.007052 -1.041607 -0.470450 2.680500 -3.509930 -0.486715 12.527278 89.667866 -77.883400 -128.959409 -3.234239 11.391015 8.932892 -1.347506 -58.446623 -10.075195 -175.405276 81.260765 -167.132387 -5.023526 -11.972332 -5.863614 0.084261 -0.163522 -0.128530 -0.195923 -60.109614 9.325345 -107.680968 80.439245 -112.059898 5.730658 -6.741725 5.688311 -0.183476 0.322591 -0.222713
